<?xml version="1.0" standalone="no"?>
<!DOCTYPE svg PUBLIC "-//W3C//DTD SVG 20010904//EN"
 "http://www.w3.org/TR/2001/REC-SVG-20010904/DTD/svg10.dtd">
<svg version="1.0" xmlns="http://www.w3.org/2000/svg"
 width="256.000000pt" height="256.000000pt" viewBox="0 0 256.000000 256.000000"
 preserveAspectRatio="xMidYMid meet">
<metadata>
Created by potrace 1.11, written by Peter Selinger 2001-2013
</metadata>
<g transform="translate(0.000000,256.000000) scale(0.100000,-0.100000)"
fill="#000000" stroke="none">
<path d="M0 1280 l0 -1280 1280 0 1280 0 0 1280 0 1280 -1280 0 -1280 0 0
-1280z m2407 258 l-13 -33 -1038 -3 -1037 -2 -15 -35 c-7 -19 -14 -37 -14 -40
0 -3 45 -5 100 -5 78 0 102 -3 106 -14 10 -25 -44 -184 -66 -196 -12 -6 -72
-9 -148 -8 l-128 3 8 33 9 32 110 0 c108 0 110 0 119 26 20 51 17 53 -87 56
-115 4 -114 2 -82 109 37 122 -99 109 1124 109 l1065 0 -13 -32z m-1660 -80
c7 -9 -1 -51 -27 -133 -34 -112 -38 -120 -63 -123 -15 -2 -27 -2 -27 0 0 2 4
18 9 36 l10 32 -54 0 c-53 0 -55 -1 -63 -32 -6 -26 -14 -34 -35 -36 -15 -2
-27 0 -27 3 0 27 75 243 88 253 10 7 47 12 98 12 53 0 85 -4 91 -12z m103 5
c0 -5 -18 -64 -39 -133 -36 -116 -41 -125 -65 -128 -14 -2 -26 0 -26 4 0 4 18
65 40 135 38 119 43 129 65 129 14 0 25 -3 25 -7z m250 3 c0 -3 -4 -16 -10
-30 -9 -25 -13 -26 -88 -26 l-78 0 -22 -68 c-12 -38 -22 -74 -22 -80 0 -8 18
-12 50 -12 45 0 52 3 60 26 14 35 14 34 -20 34 -33 0 -35 3 -20 31 8 14 21 19
55 19 24 0 47 -5 50 -10 7 -12 -22 -119 -37 -137 -7 -9 -41 -13 -104 -13 -89
0 -94 1 -94 21 0 37 62 224 78 237 15 11 202 19 202 8z m237 -12 c7 -18 -51
-220 -69 -241 -12 -15 -193 -18 -202 -5 -9 15 63 236 81 250 10 7 49 12 100
12 68 0 85 -3 90 -16z m250 0 c3 -9 -10 -69 -29 -133 -33 -107 -37 -116 -62
-119 -14 -2 -26 0 -26 5 0 4 14 51 30 103 16 52 30 96 30 98 0 1 -24 2 -53 2
l-53 0 -32 -105 c-30 -97 -34 -105 -57 -105 -14 0 -25 3 -25 8 0 28 74 239 87
250 10 7 49 12 100 12 68 0 85 -3 90 -16z m293 12 c0 -1 -5 -17 -11 -35 l-11
-31 -84 0 -83 0 -32 -102 c-18 -57 -34 -108 -36 -115 -4 -9 19 -13 79 -15 l84
-3 -8 -32 -9 -33 -110 0 c-92 0 -111 3 -116 16 -10 26 84 316 108 337 17 14
41 17 125 17 57 0 104 -2 104 -4z m90 -3 c0 -5 -14 -51 -30 -103 -17 -51 -30
-98 -30 -103 0 -4 23 -7 51 -5 l52 3 34 108 c31 98 36 107 58 107 14 0 25 -3
25 -7 0 -16 -73 -239 -82 -250 -12 -15 -193 -19 -202 -5 -4 7 33 141 69 250 5
13 55 17 55 5z m397 -8 c7 -19 -23 -131 -43 -162 -13 -20 -23 -23 -80 -23
l-66 0 14 23 c10 15 27 23 52 25 37 3 41 8 60 70 7 21 5 22 -46 22 l-54 0 -32
-105 c-30 -97 -34 -105 -57 -105 -14 0 -25 3 -25 8 0 28 74 239 87 250 26 19
182 16 190 -3z m-857 -289 c0 -1 -5 -17 -11 -35 l-11 -31 -679 0 c-373 0 -679
2 -679 4 0 1 5 17 11 35 l11 31 679 0 c373 0 679 -2 679 -4z m770 -2 c0 -3
-12 -44 -26 -90 l-25 -84 -229 0 -229 0 15 48 c8 26 20 66 26 90 l12 42 228 0
c125 0 228 -3 228 -6z"/>
<path d="M577 1383 c-3 -16 -9 -36 -12 -45 -6 -16 -1 -18 44 -18 54 0 61 7 75
63 6 27 6 27 -48 27 -50 0 -54 -2 -59 -27z"/>
<path d="M1152 1336 c-12 -41 -22 -77 -22 -81 0 -3 23 -5 52 -3 l51 3 24 75
c12 41 23 76 23 78 0 1 -24 2 -53 2 l-54 0 -21 -74z"/>
<path d="M1850 1135 c0 -11 11 -15 36 -15 21 0 33 -4 29 -10 -3 -5 -21 -10
-40 -10 -28 0 -35 -5 -44 -31 -16 -47 -15 -49 39 -49 38 0 50 4 50 15 0 11
-11 15 -36 15 -21 0 -33 4 -29 10 3 6 22 10 41 10 28 0 36 5 44 26 19 48 14
54 -40 54 -38 0 -50 -4 -50 -15z"/>
<path d="M1956 1103 c-26 -77 -24 -85 31 -81 l46 3 18 54 c10 29 16 57 13 62
-3 5 -25 9 -49 9 -42 0 -43 -1 -59 -47z m70 -5 c-3 -13 -6 -29 -6 -35 0 -7
-11 -13 -25 -13 -29 0 -28 -2 -14 39 7 21 17 31 31 31 16 0 19 -5 14 -22z"/>
<path d="M2085 1140 c-3 -5 -4 -14 -1 -19 3 -5 -1 -30 -8 -55 -13 -42 -13 -47
1 -44 15 3 43 74 43 111 0 18 -25 24 -35 7z"/>
<path d="M2135 1113 c-9 -21 -19 -50 -22 -65 -5 -27 -4 -28 41 -28 44 0 48 2
61 33 7 17 15 46 17 62 3 29 1 30 -39 33 -40 3 -43 1 -58 -35z m65 -3 c0 -5
-9 -10 -21 -10 -11 0 -17 5 -14 10 3 6 13 10 21 10 8 0 14 -4 14 -10z m-10
-50 c0 -5 -12 -10 -26 -10 -14 0 -23 4 -19 10 3 6 15 10 26 10 10 0 19 -4 19
-10z"/>
</g>
</svg>
