<?xml version="1.0" standalone="no"?>
<!DOCTYPE svg PUBLIC "-//W3C//DTD SVG 20010904//EN"
 "http://www.w3.org/TR/2001/REC-SVG-20010904/DTD/svg10.dtd">
<svg version="1.0" xmlns="http://www.w3.org/2000/svg"
 width="16.000000pt" height="16.000000pt" viewBox="0 0 16.000000 16.000000"
 preserveAspectRatio="xMidYMid meet">
<metadata>
Created by potrace 1.11, written by Peter Selinger 2001-2013
</metadata>
<g transform="translate(0.000000,16.000000) scale(0.006154,-0.006154)"
fill="#000000" stroke="none">
<path d="M0 1300 l0 -1300 1300 0 1300 0 0 1300 0 1300 -1300 0 -1300 0 0
-1300z m1017 230 c39 -157 72 -293 72 -302 1 -15 -8 -18 -52 -18 l-53 0 -14
58 -15 57 -80 3 -81 3 -14 -58 -15 -58 -52 -3 c-41 -2 -53 0 -53 11 0 21 129
548 140 575 9 21 15 23 77 20 l68 -3 72 -285z m201 -17 l2 -303 -55 0 -55 0 0
298 c0 164 3 302 7 306 4 4 28 6 53 4 l45 -3 3 -302z m925 142 l82 -166 5 163
5 163 50 0 50 0 3 -303 2 -303 -47 3 -48 3 -82 165 -82 165 0 -168 -1 -168
-52 3 -53 3 -3 290 c-1 159 0 295 3 302 2 8 21 13 45 13 l40 0 83 -165z
m-1522 126 c16 -16 29 -39 30 -50 0 -12 1 -40 1 -63 l1 -43 -56 -3 -56 -3 -3
38 c-3 38 -3 38 -50 41 -39 3 -49 0 -58 -18 -6 -11 -10 -35 -8 -52 3 -30 6
-33 110 -67 59 -20 110 -39 114 -43 11 -12 6 -236 -6 -258 -19 -36 -63 -50
-154 -50 -47 0 -96 4 -110 10 -39 15 -66 66 -66 128 l0 52 59 0 60 0 3 -37 3
-38 50 0 50 0 0 59 0 58 -110 37 -110 36 -3 103 c-3 113 11 160 51 180 12 6
68 11 125 11 101 1 104 0 133 -28z m941 0 c31 -28 33 -33 33 -98 l0 -68 -52
-3 -52 -3 -3 43 -3 43 -55 0 -55 0 0 -185 0 -185 43 -3 c56 -4 72 10 72 64 0
42 -1 44 -30 44 -30 0 -30 1 -30 55 l0 55 85 0 85 0 0 -117 c0 -131 -14 -177
-60 -200 -31 -16 -193 -17 -223 -2 -55 28 -57 35 -57 292 l0 239 29 29 c29 28
32 29 135 29 103 0 107 -1 138 -29z m359 0 l29 -29 0 -239 c0 -257 -2 -264
-57 -292 -30 -15 -192 -14 -223 2 -14 7 -33 28 -43 47 -15 31 -17 61 -15 258
l3 224 33 29 c31 28 35 29 138 29 103 0 106 -1 135 -29z m-1348 -602 c37 -17
52 -54 52 -128 l0 -66 -47 -3 -48 -3 0 44 c0 54 -16 69 -67 65 l-38 -3 0 -170
0 -170 44 -3 c52 -4 61 6 61 66 l0 43 48 -3 47 -3 0 -73 c0 -71 -1 -75 -33
-103 -31 -28 -37 -29 -123 -29 -87 0 -92 1 -120 29 l-29 29 0 217 0 217 29 29
c28 28 34 29 115 29 47 0 96 -5 109 -11z m177 -202 c0 -228 2 -237 50 -237 48
0 50 9 50 237 l0 213 50 0 50 0 0 -246 0 -246 -29 -29 c-28 -28 -34 -29 -115
-29 -162 0 -166 8 -166 312 0 124 3 228 7 231 3 4 28 7 55 7 l48 0 0 -213z
m506 180 c23 -27 24 -35 24 -157 0 -122 -1 -130 -24 -157 -22 -25 -32 -29
-103 -33 l-78 -5 -3 -82 -3 -83 -49 0 -50 0 0 276 0 276 131 -4 c129 -3 131
-3 155 -31z"/>
<path d="M867 1630 c-4 -14 -14 -56 -22 -95 -9 -38 -18 -78 -21 -87 -5 -16 2
-18 45 -18 61 0 61 0 27 135 -18 71 -24 85 -29 65z"/>
<path d="M1732 1688 c-15 -15 -17 -320 -2 -349 8 -14 21 -19 55 -19 34 0 47 5
55 19 15 29 13 334 -2 349 -7 7 -30 12 -53 12 -23 0 -46 -5 -53 -12z"/>
<path d="M1077 1083 c-4 -3 -7 -44 -7 -90 l0 -84 53 3 52 3 3 73 c2 46 -2 79
-9 88 -12 14 -80 20 -92 7z"/>
</g>
</svg>
